%TF.GenerationSoftware,KiCad,Pcbnew,(6.0.7)*%
%TF.CreationDate,2022-09-24T23:46:27+02:00*%
%TF.ProjectId,airstream_controller,61697273-7472-4656-916d-5f636f6e7472,rev?*%
%TF.SameCoordinates,Original*%
%TF.FileFunction,Soldermask,Bot*%
%TF.FilePolarity,Negative*%
%FSLAX46Y46*%
G04 Gerber Fmt 4.6, Leading zero omitted, Abs format (unit mm)*
G04 Created by KiCad (PCBNEW (6.0.7)) date 2022-09-24 23:46:27*
%MOMM*%
%LPD*%
G01*
G04 APERTURE LIST*
G04 Aperture macros list*
%AMRoundRect*
0 Rectangle with rounded corners*
0 $1 Rounding radius*
0 $2 $3 $4 $5 $6 $7 $8 $9 X,Y pos of 4 corners*
0 Add a 4 corners polygon primitive as box body*
4,1,4,$2,$3,$4,$5,$6,$7,$8,$9,$2,$3,0*
0 Add four circle primitives for the rounded corners*
1,1,$1+$1,$2,$3*
1,1,$1+$1,$4,$5*
1,1,$1+$1,$6,$7*
1,1,$1+$1,$8,$9*
0 Add four rect primitives between the rounded corners*
20,1,$1+$1,$2,$3,$4,$5,0*
20,1,$1+$1,$4,$5,$6,$7,0*
20,1,$1+$1,$6,$7,$8,$9,0*
20,1,$1+$1,$8,$9,$2,$3,0*%
G04 Aperture macros list end*
%ADD10R,1.700000X1.700000*%
%ADD11O,1.700000X1.700000*%
%ADD12O,2.268000X1.524000*%
%ADD13C,3.200000*%
%ADD14RoundRect,0.250000X-0.600000X-0.750000X0.600000X-0.750000X0.600000X0.750000X-0.600000X0.750000X0*%
%ADD15O,1.700000X2.000000*%
%ADD16C,0.650000*%
%ADD17O,1.600000X1.000000*%
%ADD18O,2.100000X1.000000*%
%ADD19R,3.500000X3.500000*%
%ADD20C,3.500000*%
%ADD21RoundRect,0.500000X-0.500000X-0.500000X0.500000X-0.500000X0.500000X0.500000X-0.500000X0.500000X0*%
%ADD22O,1.524000X2.268000*%
%ADD23RoundRect,0.250000X-0.600000X-0.725000X0.600000X-0.725000X0.600000X0.725000X-0.600000X0.725000X0*%
%ADD24O,1.700000X1.950000*%
G04 APERTURE END LIST*
D10*
%TO.C,J6*%
X56300000Y-38300000D03*
D11*
X56300000Y-35760000D03*
X56300000Y-33220000D03*
X56300000Y-30680000D03*
%TD*%
D12*
%TO.C,U9*%
X66262500Y-28597500D03*
X66262500Y-31137500D03*
X66262500Y-33677500D03*
X66262500Y-36217500D03*
X66262500Y-38757500D03*
X66262500Y-41297500D03*
X66262500Y-43837500D03*
X66262500Y-46377500D03*
%TD*%
D13*
%TO.C,H6*%
X96000000Y-116000000D03*
%TD*%
%TO.C,H7*%
X24000000Y-116000000D03*
%TD*%
D14*
%TO.C,J3*%
X43750000Y-56475000D03*
D15*
X46250000Y-56475000D03*
%TD*%
D13*
%TO.C,H2*%
X44000000Y-98500000D03*
%TD*%
D16*
%TO.C,J1*%
X26800000Y-51490000D03*
X26800000Y-45710000D03*
D17*
X23150000Y-52920000D03*
X23150000Y-44280000D03*
D18*
X27330000Y-44280000D03*
X27330000Y-52920000D03*
%TD*%
D13*
%TO.C,H4*%
X76000000Y-66500000D03*
%TD*%
D14*
%TO.C,J5*%
X73750000Y-56475000D03*
D15*
X76250000Y-56475000D03*
%TD*%
D13*
%TO.C,H3*%
X76000000Y-98500000D03*
%TD*%
%TO.C,BT1*%
X60000000Y-95055000D03*
X60000000Y-39445000D03*
D19*
X60000000Y-30800000D03*
D20*
X60000000Y-102800000D03*
%TD*%
D13*
%TO.C,H5*%
X96000000Y-24000000D03*
%TD*%
%TO.C,H9*%
X60000000Y-24000000D03*
%TD*%
D21*
%TO.C,U7*%
X65455000Y-107050000D03*
X65455000Y-111550000D03*
X81455000Y-111550000D03*
X81455000Y-107050000D03*
%TD*%
D13*
%TO.C,H8*%
X24000000Y-24000000D03*
%TD*%
D22*
%TO.C,U4*%
X72372500Y-29087500D03*
X74912500Y-29087500D03*
X77452500Y-29087500D03*
X79992500Y-29087500D03*
X82532500Y-29087500D03*
X85072500Y-29087500D03*
X87612500Y-29087500D03*
X90152500Y-29087500D03*
%TD*%
D21*
%TO.C,U8*%
X38555000Y-107050000D03*
X38555000Y-111550000D03*
X54555000Y-111550000D03*
X54555000Y-107050000D03*
%TD*%
D23*
%TO.C,J2*%
X69850000Y-22875000D03*
D24*
X72350000Y-22875000D03*
X74850000Y-22875000D03*
X77350000Y-22875000D03*
%TD*%
D10*
%TO.C,J4*%
X81060000Y-51600000D03*
D11*
X83600000Y-51600000D03*
X86140000Y-51600000D03*
%TD*%
D13*
%TO.C,H1*%
X44000000Y-66500000D03*
%TD*%
M02*
