%TF.GenerationSoftware,KiCad,Pcbnew,(6.0.7)*%
%TF.CreationDate,2022-09-24T23:46:27+02:00*%
%TF.ProjectId,airstream_controller,61697273-7472-4656-916d-5f636f6e7472,rev?*%
%TF.SameCoordinates,Original*%
%TF.FileFunction,Other,Comment*%
%FSLAX46Y46*%
G04 Gerber Fmt 4.6, Leading zero omitted, Abs format (unit mm)*
G04 Created by KiCad (PCBNEW (6.0.7)) date 2022-09-24 23:46:27*
%MOMM*%
%LPD*%
G01*
G04 APERTURE LIST*
%ADD10C,0.100000*%
%ADD11C,0.150000*%
G04 APERTURE END LIST*
D10*
%TO.C,U1*%
X50661904Y-15101190D02*
X50423809Y-15101190D01*
X50400000Y-15339285D01*
X50423809Y-15315476D01*
X50471428Y-15291666D01*
X50590476Y-15291666D01*
X50638095Y-15315476D01*
X50661904Y-15339285D01*
X50685714Y-15386904D01*
X50685714Y-15505952D01*
X50661904Y-15553571D01*
X50638095Y-15577380D01*
X50590476Y-15601190D01*
X50471428Y-15601190D01*
X50423809Y-15577380D01*
X50400000Y-15553571D01*
X51280952Y-15601190D02*
X51280952Y-15267857D01*
X51280952Y-15315476D02*
X51304761Y-15291666D01*
X51352380Y-15267857D01*
X51423809Y-15267857D01*
X51471428Y-15291666D01*
X51495238Y-15339285D01*
X51495238Y-15601190D01*
X51495238Y-15339285D02*
X51519047Y-15291666D01*
X51566666Y-15267857D01*
X51638095Y-15267857D01*
X51685714Y-15291666D01*
X51709523Y-15339285D01*
X51709523Y-15601190D01*
X51947619Y-15601190D02*
X51947619Y-15267857D01*
X51947619Y-15315476D02*
X51971428Y-15291666D01*
X52019047Y-15267857D01*
X52090476Y-15267857D01*
X52138095Y-15291666D01*
X52161904Y-15339285D01*
X52161904Y-15601190D01*
X52161904Y-15339285D02*
X52185714Y-15291666D01*
X52233333Y-15267857D01*
X52304761Y-15267857D01*
X52352380Y-15291666D01*
X52376190Y-15339285D01*
X52376190Y-15601190D01*
D11*
X33528571Y-11202380D02*
X33528571Y-10202380D01*
X34100000Y-11202380D02*
X33671428Y-10630952D01*
X34100000Y-10202380D02*
X33528571Y-10773809D01*
X34528571Y-10678571D02*
X34861904Y-10678571D01*
X35004761Y-11202380D02*
X34528571Y-11202380D01*
X34528571Y-10202380D01*
X35004761Y-10202380D01*
X35433333Y-10678571D02*
X35766666Y-10678571D01*
X35909523Y-11202380D02*
X35433333Y-11202380D01*
X35433333Y-10202380D01*
X35909523Y-10202380D01*
X36338095Y-11202380D02*
X36338095Y-10202380D01*
X36719047Y-10202380D01*
X36814285Y-10250000D01*
X36861904Y-10297619D01*
X36909523Y-10392857D01*
X36909523Y-10535714D01*
X36861904Y-10630952D01*
X36814285Y-10678571D01*
X36719047Y-10726190D01*
X36338095Y-10726190D01*
X37338095Y-10821428D02*
X38100000Y-10821428D01*
X38766666Y-10202380D02*
X38957142Y-10202380D01*
X39052380Y-10250000D01*
X39147619Y-10345238D01*
X39195238Y-10535714D01*
X39195238Y-10869047D01*
X39147619Y-11059523D01*
X39052380Y-11154761D01*
X38957142Y-11202380D01*
X38766666Y-11202380D01*
X38671428Y-11154761D01*
X38576190Y-11059523D01*
X38528571Y-10869047D01*
X38528571Y-10535714D01*
X38576190Y-10345238D01*
X38671428Y-10250000D01*
X38766666Y-10202380D01*
X39623809Y-10202380D02*
X39623809Y-11011904D01*
X39671428Y-11107142D01*
X39719047Y-11154761D01*
X39814285Y-11202380D01*
X40004761Y-11202380D01*
X40100000Y-11154761D01*
X40147619Y-11107142D01*
X40195238Y-11011904D01*
X40195238Y-10202380D01*
X40528571Y-10202380D02*
X41100000Y-10202380D01*
X40814285Y-11202380D02*
X40814285Y-10202380D01*
X42100000Y-10202380D02*
X42766666Y-10202380D01*
X42100000Y-11202380D01*
X42766666Y-11202380D01*
X43338095Y-10202380D02*
X43528571Y-10202380D01*
X43623809Y-10250000D01*
X43719047Y-10345238D01*
X43766666Y-10535714D01*
X43766666Y-10869047D01*
X43719047Y-11059523D01*
X43623809Y-11154761D01*
X43528571Y-11202380D01*
X43338095Y-11202380D01*
X43242857Y-11154761D01*
X43147619Y-11059523D01*
X43100000Y-10869047D01*
X43100000Y-10535714D01*
X43147619Y-10345238D01*
X43242857Y-10250000D01*
X43338095Y-10202380D01*
X44195238Y-11202380D02*
X44195238Y-10202380D01*
X44766666Y-11202380D01*
X44766666Y-10202380D01*
X45242857Y-10678571D02*
X45576190Y-10678571D01*
X45719047Y-11202380D02*
X45242857Y-11202380D01*
X45242857Y-10202380D01*
X45719047Y-10202380D01*
X36838095Y-16916666D02*
X37314285Y-16916666D01*
X36742857Y-17202380D02*
X37076190Y-16202380D01*
X37409523Y-17202380D01*
X37742857Y-16535714D02*
X37742857Y-17202380D01*
X37742857Y-16630952D02*
X37790476Y-16583333D01*
X37885714Y-16535714D01*
X38028571Y-16535714D01*
X38123809Y-16583333D01*
X38171428Y-16678571D01*
X38171428Y-17202380D01*
X38504761Y-16535714D02*
X38885714Y-16535714D01*
X38647619Y-16202380D02*
X38647619Y-17059523D01*
X38695238Y-17154761D01*
X38790476Y-17202380D01*
X38885714Y-17202380D01*
X39600000Y-17154761D02*
X39504761Y-17202380D01*
X39314285Y-17202380D01*
X39219047Y-17154761D01*
X39171428Y-17059523D01*
X39171428Y-16678571D01*
X39219047Y-16583333D01*
X39314285Y-16535714D01*
X39504761Y-16535714D01*
X39600000Y-16583333D01*
X39647619Y-16678571D01*
X39647619Y-16773809D01*
X39171428Y-16869047D01*
X40076190Y-16535714D02*
X40076190Y-17202380D01*
X40076190Y-16630952D02*
X40123809Y-16583333D01*
X40219047Y-16535714D01*
X40361904Y-16535714D01*
X40457142Y-16583333D01*
X40504761Y-16678571D01*
X40504761Y-17202380D01*
X40980952Y-16535714D02*
X40980952Y-17202380D01*
X40980952Y-16630952D02*
X41028571Y-16583333D01*
X41123809Y-16535714D01*
X41266666Y-16535714D01*
X41361904Y-16583333D01*
X41409523Y-16678571D01*
X41409523Y-17202380D01*
X42314285Y-17202380D02*
X42314285Y-16678571D01*
X42266666Y-16583333D01*
X42171428Y-16535714D01*
X41980952Y-16535714D01*
X41885714Y-16583333D01*
X42314285Y-17154761D02*
X42219047Y-17202380D01*
X41980952Y-17202380D01*
X41885714Y-17154761D01*
X41838095Y-17059523D01*
X41838095Y-16964285D01*
X41885714Y-16869047D01*
X41980952Y-16821428D01*
X42219047Y-16821428D01*
X42314285Y-16773809D01*
D10*
X27661904Y-15101190D02*
X27423809Y-15101190D01*
X27400000Y-15339285D01*
X27423809Y-15315476D01*
X27471428Y-15291666D01*
X27590476Y-15291666D01*
X27638095Y-15315476D01*
X27661904Y-15339285D01*
X27685714Y-15386904D01*
X27685714Y-15505952D01*
X27661904Y-15553571D01*
X27638095Y-15577380D01*
X27590476Y-15601190D01*
X27471428Y-15601190D01*
X27423809Y-15577380D01*
X27400000Y-15553571D01*
X28280952Y-15601190D02*
X28280952Y-15267857D01*
X28280952Y-15315476D02*
X28304761Y-15291666D01*
X28352380Y-15267857D01*
X28423809Y-15267857D01*
X28471428Y-15291666D01*
X28495238Y-15339285D01*
X28495238Y-15601190D01*
X28495238Y-15339285D02*
X28519047Y-15291666D01*
X28566666Y-15267857D01*
X28638095Y-15267857D01*
X28685714Y-15291666D01*
X28709523Y-15339285D01*
X28709523Y-15601190D01*
X28947619Y-15601190D02*
X28947619Y-15267857D01*
X28947619Y-15315476D02*
X28971428Y-15291666D01*
X29019047Y-15267857D01*
X29090476Y-15267857D01*
X29138095Y-15291666D01*
X29161904Y-15339285D01*
X29161904Y-15601190D01*
X29161904Y-15339285D02*
X29185714Y-15291666D01*
X29233333Y-15267857D01*
X29304761Y-15267857D01*
X29352380Y-15291666D01*
X29376190Y-15339285D01*
X29376190Y-15601190D01*
X47126190Y-11413095D02*
X47126190Y-11651190D01*
X47364285Y-11675000D01*
X47340476Y-11651190D01*
X47316666Y-11603571D01*
X47316666Y-11484523D01*
X47340476Y-11436904D01*
X47364285Y-11413095D01*
X47411904Y-11389285D01*
X47530952Y-11389285D01*
X47578571Y-11413095D01*
X47602380Y-11436904D01*
X47626190Y-11484523D01*
X47626190Y-11603571D01*
X47602380Y-11651190D01*
X47578571Y-11675000D01*
X47626190Y-10794047D02*
X47292857Y-10794047D01*
X47340476Y-10794047D02*
X47316666Y-10770238D01*
X47292857Y-10722619D01*
X47292857Y-10651190D01*
X47316666Y-10603571D01*
X47364285Y-10579761D01*
X47626190Y-10579761D01*
X47364285Y-10579761D02*
X47316666Y-10555952D01*
X47292857Y-10508333D01*
X47292857Y-10436904D01*
X47316666Y-10389285D01*
X47364285Y-10365476D01*
X47626190Y-10365476D01*
X47626190Y-10127380D02*
X47292857Y-10127380D01*
X47340476Y-10127380D02*
X47316666Y-10103571D01*
X47292857Y-10055952D01*
X47292857Y-9984523D01*
X47316666Y-9936904D01*
X47364285Y-9913095D01*
X47626190Y-9913095D01*
X47364285Y-9913095D02*
X47316666Y-9889285D01*
X47292857Y-9841666D01*
X47292857Y-9770238D01*
X47316666Y-9722619D01*
X47364285Y-9698809D01*
X47626190Y-9698809D01*
D11*
%TO.C,H6*%
X99200000Y-116000000D02*
G75*
G03*
X99200000Y-116000000I-3200000J0D01*
G01*
%TO.C,H7*%
X27200000Y-116000000D02*
G75*
G03*
X27200000Y-116000000I-3200000J0D01*
G01*
D10*
%TO.C,U1*%
X48800000Y-15875000D02*
X49000000Y-16075000D01*
X48800000Y-15875000D02*
X53400000Y-15875000D01*
X25800000Y-15875000D02*
X26000000Y-16075000D01*
X25800000Y-15875000D02*
X30400000Y-15875000D01*
X53400000Y-15875000D02*
X53200000Y-16075000D01*
X30400000Y-15875000D02*
X30200000Y-16075000D01*
X48000000Y-13750000D02*
X47800000Y-13550000D01*
X48000000Y-13750000D02*
X48200000Y-13550000D01*
X48000000Y-9150000D02*
X47800000Y-9350000D01*
X48000000Y-9150000D02*
X48200000Y-9350000D01*
X25800000Y-15875000D02*
X26000000Y-15675000D01*
X48800000Y-15875000D02*
X49000000Y-15675000D01*
X48000000Y-13750000D02*
X48000000Y-9150000D01*
X30400000Y-15875000D02*
X30200000Y-15675000D01*
X53400000Y-15875000D02*
X53200000Y-15675000D01*
D11*
%TO.C,H2*%
X47200000Y-98500000D02*
G75*
G03*
X47200000Y-98500000I-3200000J0D01*
G01*
%TO.C,H4*%
X79200000Y-66500000D02*
G75*
G03*
X79200000Y-66500000I-3200000J0D01*
G01*
%TO.C,H3*%
X79200000Y-98500000D02*
G75*
G03*
X79200000Y-98500000I-3200000J0D01*
G01*
%TO.C,H5*%
X99200000Y-24000000D02*
G75*
G03*
X99200000Y-24000000I-3200000J0D01*
G01*
%TO.C,H9*%
X63200000Y-24000000D02*
G75*
G03*
X63200000Y-24000000I-3200000J0D01*
G01*
%TO.C,H8*%
X27200000Y-24000000D02*
G75*
G03*
X27200000Y-24000000I-3200000J0D01*
G01*
%TO.C,H1*%
X47200000Y-66500000D02*
G75*
G03*
X47200000Y-66500000I-3200000J0D01*
G01*
%TD*%
M02*
