%TF.GenerationSoftware,KiCad,Pcbnew,(6.0.7)*%
%TF.CreationDate,2022-09-24T23:46:27+02:00*%
%TF.ProjectId,airstream_controller,61697273-7472-4656-916d-5f636f6e7472,rev?*%
%TF.SameCoordinates,Original*%
%TF.FileFunction,Profile,NP*%
%FSLAX46Y46*%
G04 Gerber Fmt 4.6, Leading zero omitted, Abs format (unit mm)*
G04 Created by KiCad (PCBNEW (6.0.7)) date 2022-09-24 23:46:27*
%MOMM*%
%LPD*%
G01*
G04 APERTURE LIST*
%TA.AperFunction,Profile*%
%ADD10C,0.100000*%
%TD*%
%TA.AperFunction,Profile*%
%ADD11C,0.120000*%
%TD*%
G04 APERTURE END LIST*
D10*
X78000000Y-72500000D02*
X70000000Y-64500000D01*
X50000000Y-64500000D02*
X42000000Y-72500000D01*
X39000000Y-92500000D02*
X38000000Y-92500000D01*
X38000000Y-92500000D02*
X38000000Y-72500000D01*
X38000000Y-72500000D02*
X39000000Y-72500000D01*
X39000000Y-72500000D02*
X39000000Y-92500000D01*
X70000000Y-64500000D02*
X50000000Y-64500000D01*
X67000000Y-103500000D02*
X82000000Y-103500000D01*
X82000000Y-103500000D02*
X82000000Y-104500000D01*
X82000000Y-104500000D02*
X67000000Y-104500000D01*
X67000000Y-104500000D02*
X67000000Y-103500000D01*
X20000000Y-20000000D02*
X100000000Y-20000000D01*
X100000000Y-20000000D02*
X100000000Y-120000000D01*
X100000000Y-120000000D02*
X20000000Y-120000000D01*
X20000000Y-120000000D02*
X20000000Y-20000000D01*
X50000000Y-100500000D02*
X70000000Y-100500000D01*
X70000000Y-61500000D02*
X50000000Y-61500000D01*
X50000000Y-61500000D02*
X50000000Y-60500000D01*
X50000000Y-60500000D02*
X70000000Y-60500000D01*
X70000000Y-60500000D02*
X70000000Y-61500000D01*
X42000000Y-72500000D02*
X42000000Y-92500000D01*
X38000000Y-103500000D02*
X53000000Y-103500000D01*
X53000000Y-103500000D02*
X53000000Y-104500000D01*
X53000000Y-104500000D02*
X38000000Y-104500000D01*
X38000000Y-104500000D02*
X38000000Y-103500000D01*
X78000000Y-92500000D02*
X78000000Y-72500000D01*
X81000000Y-92500000D02*
X82000000Y-92500000D01*
X82000000Y-92500000D02*
X82000000Y-72500000D01*
X82000000Y-72500000D02*
X81000000Y-72500000D01*
X81000000Y-72500000D02*
X81000000Y-92500000D01*
X70000000Y-100500000D02*
X78000000Y-92500000D01*
X42000000Y-92500000D02*
X50000000Y-100500000D01*
D11*
%TO.C,U7*%
X66705000Y-106050000D02*
X80205000Y-106050000D01*
X80205000Y-106050000D02*
X80205000Y-112550000D01*
X80205000Y-112550000D02*
X66705000Y-112550000D01*
X66705000Y-112550000D02*
X66705000Y-106050000D01*
%TO.C,U8*%
X39805000Y-106050000D02*
X53305000Y-106050000D01*
X53305000Y-106050000D02*
X53305000Y-112550000D01*
X53305000Y-112550000D02*
X39805000Y-112550000D01*
X39805000Y-112550000D02*
X39805000Y-106050000D01*
%TD*%
M02*
