%TF.GenerationSoftware,KiCad,Pcbnew,(6.0.7)*%
%TF.CreationDate,2022-09-24T23:46:27+02:00*%
%TF.ProjectId,airstream_controller,61697273-7472-4656-916d-5f636f6e7472,rev?*%
%TF.SameCoordinates,Original*%
%TF.FileFunction,Paste,Top*%
%TF.FilePolarity,Positive*%
%FSLAX46Y46*%
G04 Gerber Fmt 4.6, Leading zero omitted, Abs format (unit mm)*
G04 Created by KiCad (PCBNEW (6.0.7)) date 2022-09-24 23:46:27*
%MOMM*%
%LPD*%
G01*
G04 APERTURE LIST*
G04 Aperture macros list*
%AMRoundRect*
0 Rectangle with rounded corners*
0 $1 Rounding radius*
0 $2 $3 $4 $5 $6 $7 $8 $9 X,Y pos of 4 corners*
0 Add a 4 corners polygon primitive as box body*
4,1,4,$2,$3,$4,$5,$6,$7,$8,$9,$2,$3,0*
0 Add four circle primitives for the rounded corners*
1,1,$1+$1,$2,$3*
1,1,$1+$1,$4,$5*
1,1,$1+$1,$6,$7*
1,1,$1+$1,$8,$9*
0 Add four rect primitives between the rounded corners*
20,1,$1+$1,$2,$3,$4,$5,0*
20,1,$1+$1,$4,$5,$6,$7,0*
20,1,$1+$1,$6,$7,$8,$9,0*
20,1,$1+$1,$8,$9,$2,$3,0*%
G04 Aperture macros list end*
%ADD10R,2.000000X0.900000*%
%ADD11R,0.900000X2.000000*%
%ADD12R,5.000000X5.000000*%
%ADD13RoundRect,0.225000X-0.250000X0.225000X-0.250000X-0.225000X0.250000X-0.225000X0.250000X0.225000X0*%
%ADD14RoundRect,0.225000X0.225000X0.250000X-0.225000X0.250000X-0.225000X-0.250000X0.225000X-0.250000X0*%
%ADD15RoundRect,0.225000X-0.225000X-0.250000X0.225000X-0.250000X0.225000X0.250000X-0.225000X0.250000X0*%
%ADD16RoundRect,0.150000X0.512500X0.150000X-0.512500X0.150000X-0.512500X-0.150000X0.512500X-0.150000X0*%
%ADD17R,1.450000X0.600000*%
%ADD18R,1.450000X0.300000*%
%ADD19RoundRect,0.200000X0.200000X0.275000X-0.200000X0.275000X-0.200000X-0.275000X0.200000X-0.275000X0*%
%ADD20R,2.000000X1.500000*%
%ADD21R,2.000000X3.800000*%
%ADD22R,1.700000X1.000000*%
%ADD23RoundRect,0.200000X-0.275000X0.200000X-0.275000X-0.200000X0.275000X-0.200000X0.275000X0.200000X0*%
%ADD24RoundRect,0.200000X-0.200000X-0.275000X0.200000X-0.275000X0.200000X0.275000X-0.200000X0.275000X0*%
%ADD25R,1.000000X1.500000*%
%ADD26RoundRect,0.150000X-0.150000X0.587500X-0.150000X-0.587500X0.150000X-0.587500X0.150000X0.587500X0*%
%ADD27RoundRect,0.200000X0.275000X-0.200000X0.275000X0.200000X-0.275000X0.200000X-0.275000X-0.200000X0*%
%ADD28RoundRect,0.225000X0.250000X-0.225000X0.250000X0.225000X-0.250000X0.225000X-0.250000X-0.225000X0*%
%ADD29RoundRect,0.150000X-0.825000X-0.150000X0.825000X-0.150000X0.825000X0.150000X-0.825000X0.150000X0*%
G04 APERTURE END LIST*
D10*
%TO.C,U1*%
X31100000Y-21495000D03*
X31100000Y-22765000D03*
X31100000Y-24035000D03*
X31100000Y-25305000D03*
X31100000Y-26575000D03*
X31100000Y-27845000D03*
X31100000Y-29115000D03*
X31100000Y-30385000D03*
X31100000Y-31655000D03*
X31100000Y-32925000D03*
X31100000Y-34195000D03*
X31100000Y-35465000D03*
X31100000Y-36735000D03*
X31100000Y-38005000D03*
D11*
X33885000Y-39005000D03*
X35155000Y-39005000D03*
X36425000Y-39005000D03*
X37695000Y-39005000D03*
X38965000Y-39005000D03*
X40235000Y-39005000D03*
X41505000Y-39005000D03*
X42775000Y-39005000D03*
X44045000Y-39005000D03*
X45315000Y-39005000D03*
D10*
X48100000Y-38005000D03*
X48100000Y-36735000D03*
X48100000Y-35465000D03*
X48100000Y-34195000D03*
X48100000Y-32925000D03*
X48100000Y-31655000D03*
X48100000Y-30385000D03*
X48100000Y-29115000D03*
X48100000Y-27845000D03*
X48100000Y-26575000D03*
X48100000Y-25305000D03*
X48100000Y-24035000D03*
X48100000Y-22765000D03*
X48100000Y-21495000D03*
D12*
X38600000Y-28995000D03*
%TD*%
D13*
%TO.C,C2*%
X28900000Y-27225000D03*
X28900000Y-28775000D03*
%TD*%
D14*
%TO.C,C4*%
X90225000Y-55050000D03*
X88675000Y-55050000D03*
%TD*%
D15*
%TO.C,C6*%
X44725000Y-48500000D03*
X46275000Y-48500000D03*
%TD*%
D16*
%TO.C,U6*%
X76637500Y-52450000D03*
X76637500Y-51500000D03*
X76637500Y-50550000D03*
X74362500Y-50550000D03*
X74362500Y-51500000D03*
X74362500Y-52450000D03*
%TD*%
D14*
%TO.C,C11*%
X44275000Y-52000000D03*
X42725000Y-52000000D03*
%TD*%
%TO.C,C8*%
X37775000Y-41100000D03*
X36225000Y-41100000D03*
%TD*%
D17*
%TO.C,J1*%
X28245000Y-45350000D03*
X28245000Y-46150000D03*
D18*
X28245000Y-47350000D03*
X28245000Y-48350000D03*
X28245000Y-48850000D03*
X28245000Y-49850000D03*
D17*
X28245000Y-51050000D03*
X28245000Y-51850000D03*
X28245000Y-51850000D03*
X28245000Y-51050000D03*
D18*
X28245000Y-50350000D03*
X28245000Y-49350000D03*
X28245000Y-47850000D03*
X28245000Y-46850000D03*
D17*
X28245000Y-46150000D03*
X28245000Y-45350000D03*
%TD*%
D14*
%TO.C,C9*%
X90225000Y-53550000D03*
X88675000Y-53550000D03*
%TD*%
D16*
%TO.C,U5*%
X48237500Y-52450000D03*
X48237500Y-51500000D03*
X48237500Y-50550000D03*
X45962500Y-50550000D03*
X45962500Y-51500000D03*
X45962500Y-52450000D03*
%TD*%
D19*
%TO.C,R12*%
X60625000Y-108500000D03*
X58975000Y-108500000D03*
%TD*%
%TO.C,R4*%
X40925000Y-45600000D03*
X39275000Y-45600000D03*
%TD*%
D20*
%TO.C,U3*%
X92250000Y-49700000D03*
D21*
X98550000Y-52000000D03*
D20*
X92250000Y-52000000D03*
X92250000Y-54300000D03*
%TD*%
D22*
%TO.C,SW1*%
X28000000Y-30600000D03*
X21700000Y-30600000D03*
X21700000Y-34400000D03*
X28000000Y-34400000D03*
%TD*%
D23*
%TO.C,R6*%
X50200000Y-22375000D03*
X50200000Y-24025000D03*
%TD*%
D24*
%TO.C,R9*%
X61975000Y-107000000D03*
X63625000Y-107000000D03*
%TD*%
D25*
%TO.C,D1*%
X44900000Y-46450000D03*
X48100000Y-46450000D03*
X48100000Y-41550000D03*
X44900000Y-41550000D03*
%TD*%
D23*
%TO.C,R2*%
X26000000Y-40875000D03*
X26000000Y-42525000D03*
%TD*%
D13*
%TO.C,C3*%
X28900000Y-21225000D03*
X28900000Y-22775000D03*
%TD*%
D14*
%TO.C,C10*%
X90225000Y-50550000D03*
X88675000Y-50550000D03*
%TD*%
D26*
%TO.C,Q2*%
X41250000Y-41962500D03*
X39350000Y-41962500D03*
X40300000Y-43837500D03*
%TD*%
D27*
%TO.C,R7*%
X43000000Y-42825000D03*
X43000000Y-41175000D03*
%TD*%
D14*
%TO.C,C14*%
X72675000Y-52500000D03*
X71125000Y-52500000D03*
%TD*%
D26*
%TO.C,Q1*%
X41250000Y-48862500D03*
X39350000Y-48862500D03*
X40300000Y-50737500D03*
%TD*%
D14*
%TO.C,C13*%
X44275000Y-50500000D03*
X42725000Y-50500000D03*
%TD*%
%TO.C,C12*%
X72675000Y-51000000D03*
X71125000Y-51000000D03*
%TD*%
D28*
%TO.C,C7*%
X30300000Y-46775000D03*
X30300000Y-45225000D03*
%TD*%
D19*
%TO.C,R10*%
X60625000Y-107000000D03*
X58975000Y-107000000D03*
%TD*%
D29*
%TO.C,U2*%
X32325000Y-42855000D03*
X32325000Y-44125000D03*
X32325000Y-45395000D03*
X32325000Y-46665000D03*
X32325000Y-47935000D03*
X32325000Y-49205000D03*
X32325000Y-50475000D03*
X32325000Y-51745000D03*
X37275000Y-51745000D03*
X37275000Y-50475000D03*
X37275000Y-49205000D03*
X37275000Y-47935000D03*
X37275000Y-46665000D03*
X37275000Y-45395000D03*
X37275000Y-44125000D03*
X37275000Y-42855000D03*
%TD*%
D19*
%TO.C,R3*%
X27925000Y-54700000D03*
X26275000Y-54700000D03*
%TD*%
D24*
%TO.C,R11*%
X61975000Y-108500000D03*
X63625000Y-108500000D03*
%TD*%
D23*
%TO.C,R8*%
X65600000Y-23375000D03*
X65600000Y-25025000D03*
%TD*%
D19*
%TO.C,R5*%
X40925000Y-47100000D03*
X39275000Y-47100000D03*
%TD*%
D27*
%TO.C,R1*%
X27400000Y-28825000D03*
X27400000Y-27175000D03*
%TD*%
D14*
%TO.C,C5*%
X90225000Y-52050000D03*
X88675000Y-52050000D03*
%TD*%
D13*
%TO.C,C1*%
X28900000Y-24225000D03*
X28900000Y-25775000D03*
%TD*%
M02*
