%TF.GenerationSoftware,KiCad,Pcbnew,(6.0.7)*%
%TF.CreationDate,2022-09-24T23:46:27+02:00*%
%TF.ProjectId,airstream_controller,61697273-7472-4656-916d-5f636f6e7472,rev?*%
%TF.SameCoordinates,Original*%
%TF.FileFunction,Legend,Bot*%
%TF.FilePolarity,Positive*%
%FSLAX46Y46*%
G04 Gerber Fmt 4.6, Leading zero omitted, Abs format (unit mm)*
G04 Created by KiCad (PCBNEW (6.0.7)) date 2022-09-24 23:46:27*
%MOMM*%
%LPD*%
G01*
G04 APERTURE LIST*
G04 Aperture macros list*
%AMRoundRect*
0 Rectangle with rounded corners*
0 $1 Rounding radius*
0 $2 $3 $4 $5 $6 $7 $8 $9 X,Y pos of 4 corners*
0 Add a 4 corners polygon primitive as box body*
4,1,4,$2,$3,$4,$5,$6,$7,$8,$9,$2,$3,0*
0 Add four circle primitives for the rounded corners*
1,1,$1+$1,$2,$3*
1,1,$1+$1,$4,$5*
1,1,$1+$1,$6,$7*
1,1,$1+$1,$8,$9*
0 Add four rect primitives between the rounded corners*
20,1,$1+$1,$2,$3,$4,$5,0*
20,1,$1+$1,$4,$5,$6,$7,0*
20,1,$1+$1,$6,$7,$8,$9,0*
20,1,$1+$1,$8,$9,$2,$3,0*%
G04 Aperture macros list end*
%ADD10C,0.150000*%
%ADD11C,0.120000*%
%ADD12R,1.700000X1.700000*%
%ADD13O,1.700000X1.700000*%
%ADD14O,2.268000X1.524000*%
%ADD15C,3.200000*%
%ADD16RoundRect,0.250000X-0.600000X-0.750000X0.600000X-0.750000X0.600000X0.750000X-0.600000X0.750000X0*%
%ADD17O,1.700000X2.000000*%
%ADD18C,0.650000*%
%ADD19O,1.600000X1.000000*%
%ADD20O,2.100000X1.000000*%
%ADD21R,3.500000X3.500000*%
%ADD22C,3.500000*%
%ADD23RoundRect,0.500000X-0.500000X-0.500000X0.500000X-0.500000X0.500000X0.500000X-0.500000X0.500000X0*%
%ADD24O,1.524000X2.268000*%
%ADD25RoundRect,0.250000X-0.600000X-0.725000X0.600000X-0.725000X0.600000X0.725000X-0.600000X0.725000X0*%
%ADD26O,1.700000X1.950000*%
G04 APERTURE END LIST*
D10*
%TO.C,J6*%
X53885714Y-30166666D02*
X54552380Y-30166666D01*
X53504761Y-29928571D02*
X54219047Y-29690476D01*
X54219047Y-30309523D01*
X53552380Y-30547619D02*
X54552380Y-30880952D01*
X53552380Y-31214285D01*
X53600000Y-32833333D02*
X53552380Y-32738095D01*
X53552380Y-32595238D01*
X53600000Y-32452380D01*
X53695238Y-32357142D01*
X53790476Y-32309523D01*
X53980952Y-32261904D01*
X54123809Y-32261904D01*
X54314285Y-32309523D01*
X54409523Y-32357142D01*
X54504761Y-32452380D01*
X54552380Y-32595238D01*
X54552380Y-32690476D01*
X54504761Y-32833333D01*
X54457142Y-32880952D01*
X54123809Y-32880952D01*
X54123809Y-32690476D01*
X54552380Y-33309523D02*
X53552380Y-33309523D01*
X54552380Y-33880952D01*
X53552380Y-33880952D01*
X53600000Y-35642857D02*
X53552380Y-35547619D01*
X53552380Y-35404761D01*
X53600000Y-35261904D01*
X53695238Y-35166666D01*
X53790476Y-35119047D01*
X53980952Y-35071428D01*
X54123809Y-35071428D01*
X54314285Y-35119047D01*
X54409523Y-35166666D01*
X54504761Y-35261904D01*
X54552380Y-35404761D01*
X54552380Y-35500000D01*
X54504761Y-35642857D01*
X54457142Y-35690476D01*
X54123809Y-35690476D01*
X54123809Y-35500000D01*
X54552380Y-36119047D02*
X53552380Y-36119047D01*
X54552380Y-36690476D01*
X53552380Y-36690476D01*
X53552380Y-38404761D02*
X53552380Y-37928571D01*
X54028571Y-37880952D01*
X53980952Y-37928571D01*
X53933333Y-38023809D01*
X53933333Y-38261904D01*
X53980952Y-38357142D01*
X54028571Y-38404761D01*
X54123809Y-38452380D01*
X54361904Y-38452380D01*
X54457142Y-38404761D01*
X54504761Y-38357142D01*
X54552380Y-38261904D01*
X54552380Y-38023809D01*
X54504761Y-37928571D01*
X54457142Y-37880952D01*
X53552380Y-38738095D02*
X54552380Y-39071428D01*
X53552380Y-39404761D01*
%TO.C,U9*%
X63174880Y-43075595D02*
X63984404Y-43075595D01*
X64079642Y-43123214D01*
X64127261Y-43170833D01*
X64174880Y-43266071D01*
X64174880Y-43456547D01*
X64127261Y-43551785D01*
X64079642Y-43599404D01*
X63984404Y-43647023D01*
X63174880Y-43647023D01*
X64174880Y-44170833D02*
X64174880Y-44361309D01*
X64127261Y-44456547D01*
X64079642Y-44504166D01*
X63936785Y-44599404D01*
X63746309Y-44647023D01*
X63365357Y-44647023D01*
X63270119Y-44599404D01*
X63222500Y-44551785D01*
X63174880Y-44456547D01*
X63174880Y-44266071D01*
X63222500Y-44170833D01*
X63270119Y-44123214D01*
X63365357Y-44075595D01*
X63603452Y-44075595D01*
X63698690Y-44123214D01*
X63746309Y-44170833D01*
X63793928Y-44266071D01*
X63793928Y-44456547D01*
X63746309Y-44551785D01*
X63698690Y-44599404D01*
X63603452Y-44647023D01*
X61182500Y-38733690D02*
X61182500Y-39209880D01*
X61515833Y-38209880D02*
X61182500Y-38733690D01*
X60849166Y-38209880D01*
X55165833Y-44559880D02*
X54499166Y-45559880D01*
X54499166Y-44559880D02*
X55165833Y-45559880D01*
D11*
%TO.C,J6*%
X57630000Y-37030000D02*
X57630000Y-29350000D01*
X54970000Y-38300000D02*
X54970000Y-39630000D01*
X54970000Y-29350000D02*
X57630000Y-29350000D01*
X54970000Y-37030000D02*
X57630000Y-37030000D01*
X54970000Y-39630000D02*
X56300000Y-39630000D01*
X54970000Y-37030000D02*
X54970000Y-29350000D01*
D10*
%TO.C,U9*%
X52292500Y-27327500D02*
X52292500Y-47647500D01*
X52292500Y-47647500D02*
X67532500Y-47647500D01*
X67532500Y-47647500D02*
X67532500Y-27327500D01*
X67532500Y-27327500D02*
X52292500Y-27327500D01*
X59912500Y-41297500D02*
X61182500Y-40027500D01*
X61182500Y-40027500D02*
X62452500Y-41297500D01*
X61182500Y-45107500D02*
X61182500Y-40027500D01*
X56102500Y-45107500D02*
X61182500Y-45107500D01*
X57372500Y-43837500D02*
X56102500Y-45107500D01*
X56102500Y-45107500D02*
X57372500Y-46377500D01*
D11*
%TO.C,U7*%
X64205000Y-105800000D02*
X65455000Y-105800000D01*
X64205000Y-108300000D02*
X65455000Y-108300000D01*
X64205000Y-107050000D02*
X64205000Y-105800000D01*
X64205000Y-107050000D02*
X64205000Y-108300000D01*
%TO.C,U8*%
X37305000Y-108300000D02*
X38555000Y-108300000D01*
X37305000Y-107050000D02*
X37305000Y-105800000D01*
X37305000Y-107050000D02*
X37305000Y-108300000D01*
X37305000Y-105800000D02*
X38555000Y-105800000D01*
%TD*%
%LPC*%
D12*
%TO.C,J6*%
X56300000Y-38300000D03*
D13*
X56300000Y-35760000D03*
X56300000Y-33220000D03*
X56300000Y-30680000D03*
%TD*%
D14*
%TO.C,U9*%
X66262500Y-28597500D03*
X66262500Y-31137500D03*
X66262500Y-33677500D03*
X66262500Y-36217500D03*
X66262500Y-38757500D03*
X66262500Y-41297500D03*
X66262500Y-43837500D03*
X66262500Y-46377500D03*
%TD*%
D15*
%TO.C,H6*%
X96000000Y-116000000D03*
%TD*%
%TO.C,H7*%
X24000000Y-116000000D03*
%TD*%
D16*
%TO.C,J3*%
X43750000Y-56475000D03*
D17*
X46250000Y-56475000D03*
%TD*%
D15*
%TO.C,H2*%
X44000000Y-98500000D03*
%TD*%
D18*
%TO.C,J1*%
X26800000Y-51490000D03*
X26800000Y-45710000D03*
D19*
X23150000Y-52920000D03*
X23150000Y-44280000D03*
D20*
X27330000Y-44280000D03*
X27330000Y-52920000D03*
%TD*%
D15*
%TO.C,H4*%
X76000000Y-66500000D03*
%TD*%
D16*
%TO.C,J5*%
X73750000Y-56475000D03*
D17*
X76250000Y-56475000D03*
%TD*%
D15*
%TO.C,H3*%
X76000000Y-98500000D03*
%TD*%
%TO.C,BT1*%
X60000000Y-95055000D03*
X60000000Y-39445000D03*
D21*
X60000000Y-30800000D03*
D22*
X60000000Y-102800000D03*
%TD*%
D15*
%TO.C,H5*%
X96000000Y-24000000D03*
%TD*%
%TO.C,H9*%
X60000000Y-24000000D03*
%TD*%
D23*
%TO.C,U7*%
X65455000Y-107050000D03*
X65455000Y-111550000D03*
X81455000Y-111550000D03*
X81455000Y-107050000D03*
%TD*%
D15*
%TO.C,H8*%
X24000000Y-24000000D03*
%TD*%
D24*
%TO.C,U4*%
X72372500Y-29087500D03*
X74912500Y-29087500D03*
X77452500Y-29087500D03*
X79992500Y-29087500D03*
X82532500Y-29087500D03*
X85072500Y-29087500D03*
X87612500Y-29087500D03*
X90152500Y-29087500D03*
%TD*%
D23*
%TO.C,U8*%
X38555000Y-107050000D03*
X38555000Y-111550000D03*
X54555000Y-111550000D03*
X54555000Y-107050000D03*
%TD*%
D25*
%TO.C,J2*%
X69850000Y-22875000D03*
D26*
X72350000Y-22875000D03*
X74850000Y-22875000D03*
X77350000Y-22875000D03*
%TD*%
D12*
%TO.C,J4*%
X81060000Y-51600000D03*
D13*
X83600000Y-51600000D03*
X86140000Y-51600000D03*
%TD*%
D15*
%TO.C,H1*%
X44000000Y-66500000D03*
%TD*%
M02*
