%TF.GenerationSoftware,KiCad,Pcbnew,(6.0.7)*%
%TF.CreationDate,2022-09-24T23:46:27+02:00*%
%TF.ProjectId,airstream_controller,61697273-7472-4656-916d-5f636f6e7472,rev?*%
%TF.SameCoordinates,Original*%
%TF.FileFunction,Legend,Top*%
%TF.FilePolarity,Positive*%
%FSLAX46Y46*%
G04 Gerber Fmt 4.6, Leading zero omitted, Abs format (unit mm)*
G04 Created by KiCad (PCBNEW (6.0.7)) date 2022-09-24 23:46:27*
%MOMM*%
%LPD*%
G01*
G04 APERTURE LIST*
G04 Aperture macros list*
%AMRoundRect*
0 Rectangle with rounded corners*
0 $1 Rounding radius*
0 $2 $3 $4 $5 $6 $7 $8 $9 X,Y pos of 4 corners*
0 Add a 4 corners polygon primitive as box body*
4,1,4,$2,$3,$4,$5,$6,$7,$8,$9,$2,$3,0*
0 Add four circle primitives for the rounded corners*
1,1,$1+$1,$2,$3*
1,1,$1+$1,$4,$5*
1,1,$1+$1,$6,$7*
1,1,$1+$1,$8,$9*
0 Add four rect primitives between the rounded corners*
20,1,$1+$1,$2,$3,$4,$5,0*
20,1,$1+$1,$4,$5,$6,$7,0*
20,1,$1+$1,$6,$7,$8,$9,0*
20,1,$1+$1,$8,$9,$2,$3,0*%
G04 Aperture macros list end*
%ADD10C,0.150000*%
%ADD11C,0.120000*%
%ADD12R,1.700000X1.700000*%
%ADD13O,1.700000X1.700000*%
%ADD14O,2.268000X1.524000*%
%ADD15C,3.200000*%
%ADD16RoundRect,0.250000X-0.600000X-0.750000X0.600000X-0.750000X0.600000X0.750000X-0.600000X0.750000X0*%
%ADD17O,1.700000X2.000000*%
%ADD18R,2.000000X0.900000*%
%ADD19R,0.900000X2.000000*%
%ADD20R,5.000000X5.000000*%
%ADD21RoundRect,0.225000X-0.250000X0.225000X-0.250000X-0.225000X0.250000X-0.225000X0.250000X0.225000X0*%
%ADD22RoundRect,0.225000X0.225000X0.250000X-0.225000X0.250000X-0.225000X-0.250000X0.225000X-0.250000X0*%
%ADD23RoundRect,0.225000X-0.225000X-0.250000X0.225000X-0.250000X0.225000X0.250000X-0.225000X0.250000X0*%
%ADD24RoundRect,0.150000X0.512500X0.150000X-0.512500X0.150000X-0.512500X-0.150000X0.512500X-0.150000X0*%
%ADD25C,0.650000*%
%ADD26R,1.450000X0.600000*%
%ADD27R,1.450000X0.300000*%
%ADD28O,1.600000X1.000000*%
%ADD29O,2.100000X1.000000*%
%ADD30RoundRect,0.200000X0.200000X0.275000X-0.200000X0.275000X-0.200000X-0.275000X0.200000X-0.275000X0*%
%ADD31R,2.000000X1.500000*%
%ADD32R,2.000000X3.800000*%
%ADD33R,1.700000X1.000000*%
%ADD34RoundRect,0.200000X-0.275000X0.200000X-0.275000X-0.200000X0.275000X-0.200000X0.275000X0.200000X0*%
%ADD35RoundRect,0.200000X-0.200000X-0.275000X0.200000X-0.275000X0.200000X0.275000X-0.200000X0.275000X0*%
%ADD36R,1.000000X1.500000*%
%ADD37RoundRect,0.150000X-0.150000X0.587500X-0.150000X-0.587500X0.150000X-0.587500X0.150000X0.587500X0*%
%ADD38RoundRect,0.200000X0.275000X-0.200000X0.275000X0.200000X-0.275000X0.200000X-0.275000X-0.200000X0*%
%ADD39R,3.500000X3.500000*%
%ADD40C,3.500000*%
%ADD41RoundRect,0.225000X0.250000X-0.225000X0.250000X0.225000X-0.250000X0.225000X-0.250000X-0.225000X0*%
%ADD42O,1.524000X2.268000*%
%ADD43RoundRect,0.150000X-0.825000X-0.150000X0.825000X-0.150000X0.825000X0.150000X-0.825000X0.150000X0*%
%ADD44RoundRect,0.250000X-0.600000X-0.725000X0.600000X-0.725000X0.600000X0.725000X-0.600000X0.725000X0*%
%ADD45O,1.700000X1.950000*%
G04 APERTURE END LIST*
D10*
X80000000Y-113000000D02*
X40000000Y-113000000D01*
X40000000Y-113000000D02*
X40000000Y-73000000D01*
X40000000Y-73000000D02*
X80000000Y-73000000D01*
X80000000Y-73000000D02*
X80000000Y-113000000D01*
%TO.C,J3*%
X43452380Y-61552380D02*
X43452380Y-60552380D01*
X43785714Y-61266666D01*
X44119047Y-60552380D01*
X44119047Y-61552380D01*
X44738095Y-61552380D02*
X44642857Y-61504761D01*
X44595238Y-61457142D01*
X44547619Y-61361904D01*
X44547619Y-61076190D01*
X44595238Y-60980952D01*
X44642857Y-60933333D01*
X44738095Y-60885714D01*
X44880952Y-60885714D01*
X44976190Y-60933333D01*
X45023809Y-60980952D01*
X45071428Y-61076190D01*
X45071428Y-61361904D01*
X45023809Y-61457142D01*
X44976190Y-61504761D01*
X44880952Y-61552380D01*
X44738095Y-61552380D01*
X45357142Y-60885714D02*
X45738095Y-60885714D01*
X45500000Y-60552380D02*
X45500000Y-61409523D01*
X45547619Y-61504761D01*
X45642857Y-61552380D01*
X45738095Y-61552380D01*
X46595238Y-61552380D02*
X46023809Y-61552380D01*
X46309523Y-61552380D02*
X46309523Y-60552380D01*
X46214285Y-60695238D01*
X46119047Y-60790476D01*
X46023809Y-60838095D01*
%TO.C,M1*%
X30209523Y-109347619D02*
X30209523Y-110347619D01*
X29876190Y-109633333D01*
X29542857Y-110347619D01*
X29542857Y-109347619D01*
X28542857Y-109347619D02*
X29114285Y-109347619D01*
X28828571Y-109347619D02*
X28828571Y-110347619D01*
X28923809Y-110204761D01*
X29019047Y-110109523D01*
X29114285Y-110061904D01*
%TO.C,SW1*%
X23397619Y-36702380D02*
X23064285Y-36226190D01*
X22826190Y-36702380D02*
X22826190Y-35702380D01*
X23207142Y-35702380D01*
X23302380Y-35750000D01*
X23350000Y-35797619D01*
X23397619Y-35892857D01*
X23397619Y-36035714D01*
X23350000Y-36130952D01*
X23302380Y-36178571D01*
X23207142Y-36226190D01*
X22826190Y-36226190D01*
X23826190Y-36178571D02*
X24159523Y-36178571D01*
X24302380Y-36702380D02*
X23826190Y-36702380D01*
X23826190Y-35702380D01*
X24302380Y-35702380D01*
X24683333Y-36654761D02*
X24826190Y-36702380D01*
X25064285Y-36702380D01*
X25159523Y-36654761D01*
X25207142Y-36607142D01*
X25254761Y-36511904D01*
X25254761Y-36416666D01*
X25207142Y-36321428D01*
X25159523Y-36273809D01*
X25064285Y-36226190D01*
X24873809Y-36178571D01*
X24778571Y-36130952D01*
X24730952Y-36083333D01*
X24683333Y-35988095D01*
X24683333Y-35892857D01*
X24730952Y-35797619D01*
X24778571Y-35750000D01*
X24873809Y-35702380D01*
X25111904Y-35702380D01*
X25254761Y-35750000D01*
X25683333Y-36178571D02*
X26016666Y-36178571D01*
X26159523Y-36702380D02*
X25683333Y-36702380D01*
X25683333Y-35702380D01*
X26159523Y-35702380D01*
X26445238Y-35702380D02*
X27016666Y-35702380D01*
X26730952Y-36702380D02*
X26730952Y-35702380D01*
%TO.C,D1*%
X43304761Y-49166666D02*
X43352380Y-49023809D01*
X43352380Y-48785714D01*
X43304761Y-48690476D01*
X43257142Y-48642857D01*
X43161904Y-48595238D01*
X43066666Y-48595238D01*
X42971428Y-48642857D01*
X42923809Y-48690476D01*
X42876190Y-48785714D01*
X42828571Y-48976190D01*
X42780952Y-49071428D01*
X42733333Y-49119047D01*
X42638095Y-49166666D01*
X42542857Y-49166666D01*
X42447619Y-49119047D01*
X42400000Y-49071428D01*
X42352380Y-48976190D01*
X42352380Y-48738095D01*
X42400000Y-48595238D01*
X42685714Y-48309523D02*
X42685714Y-47928571D01*
X42352380Y-48166666D02*
X43209523Y-48166666D01*
X43304761Y-48119047D01*
X43352380Y-48023809D01*
X43352380Y-47928571D01*
X43352380Y-47166666D02*
X42828571Y-47166666D01*
X42733333Y-47214285D01*
X42685714Y-47309523D01*
X42685714Y-47500000D01*
X42733333Y-47595238D01*
X43304761Y-47166666D02*
X43352380Y-47261904D01*
X43352380Y-47500000D01*
X43304761Y-47595238D01*
X43209523Y-47642857D01*
X43114285Y-47642857D01*
X43019047Y-47595238D01*
X42971428Y-47500000D01*
X42971428Y-47261904D01*
X42923809Y-47166666D01*
X42685714Y-46833333D02*
X42685714Y-46452380D01*
X42352380Y-46690476D02*
X43209523Y-46690476D01*
X43304761Y-46642857D01*
X43352380Y-46547619D01*
X43352380Y-46452380D01*
X42685714Y-45690476D02*
X43352380Y-45690476D01*
X42685714Y-46119047D02*
X43209523Y-46119047D01*
X43304761Y-46071428D01*
X43352380Y-45976190D01*
X43352380Y-45833333D01*
X43304761Y-45738095D01*
X43257142Y-45690476D01*
X43304761Y-45261904D02*
X43352380Y-45166666D01*
X43352380Y-44976190D01*
X43304761Y-44880952D01*
X43209523Y-44833333D01*
X43161904Y-44833333D01*
X43066666Y-44880952D01*
X43019047Y-44976190D01*
X43019047Y-45119047D01*
X42971428Y-45214285D01*
X42876190Y-45261904D01*
X42828571Y-45261904D01*
X42733333Y-45214285D01*
X42685714Y-45119047D01*
X42685714Y-44976190D01*
X42733333Y-44880952D01*
%TO.C,J5*%
X73452380Y-61527380D02*
X73452380Y-60527380D01*
X73785714Y-61241666D01*
X74119047Y-60527380D01*
X74119047Y-61527380D01*
X74738095Y-61527380D02*
X74642857Y-61479761D01*
X74595238Y-61432142D01*
X74547619Y-61336904D01*
X74547619Y-61051190D01*
X74595238Y-60955952D01*
X74642857Y-60908333D01*
X74738095Y-60860714D01*
X74880952Y-60860714D01*
X74976190Y-60908333D01*
X75023809Y-60955952D01*
X75071428Y-61051190D01*
X75071428Y-61336904D01*
X75023809Y-61432142D01*
X74976190Y-61479761D01*
X74880952Y-61527380D01*
X74738095Y-61527380D01*
X75357142Y-60860714D02*
X75738095Y-60860714D01*
X75500000Y-60527380D02*
X75500000Y-61384523D01*
X75547619Y-61479761D01*
X75642857Y-61527380D01*
X75738095Y-61527380D01*
X76023809Y-60622619D02*
X76071428Y-60575000D01*
X76166666Y-60527380D01*
X76404761Y-60527380D01*
X76500000Y-60575000D01*
X76547619Y-60622619D01*
X76595238Y-60717857D01*
X76595238Y-60813095D01*
X76547619Y-60955952D01*
X75976190Y-61527380D01*
X76595238Y-61527380D01*
%TO.C,U7*%
X72693095Y-108252380D02*
X72693095Y-109061904D01*
X72740714Y-109157142D01*
X72788333Y-109204761D01*
X72883571Y-109252380D01*
X73074047Y-109252380D01*
X73169285Y-109204761D01*
X73216904Y-109157142D01*
X73264523Y-109061904D01*
X73264523Y-108252380D01*
X73645476Y-108252380D02*
X74312142Y-108252380D01*
X73883571Y-109252380D01*
%TO.C,U4*%
X74150595Y-31079880D02*
X74150595Y-31889404D01*
X74198214Y-31984642D01*
X74245833Y-32032261D01*
X74341071Y-32079880D01*
X74531547Y-32079880D01*
X74626785Y-32032261D01*
X74674404Y-31984642D01*
X74722023Y-31889404D01*
X74722023Y-31079880D01*
X75626785Y-31413214D02*
X75626785Y-32079880D01*
X75388690Y-31032261D02*
X75150595Y-31746547D01*
X75769642Y-31746547D01*
X79968690Y-34167500D02*
X80444880Y-34167500D01*
X79444880Y-34500833D02*
X79968690Y-34167500D01*
X79444880Y-33834166D01*
X73094880Y-40850833D02*
X74094880Y-40184166D01*
X73094880Y-40184166D02*
X74094880Y-40850833D01*
%TO.C,M2*%
X91409523Y-109347619D02*
X91409523Y-110347619D01*
X91076190Y-109633333D01*
X90742857Y-110347619D01*
X90742857Y-109347619D01*
X90314285Y-110252380D02*
X90266666Y-110300000D01*
X90171428Y-110347619D01*
X89933333Y-110347619D01*
X89838095Y-110300000D01*
X89790476Y-110252380D01*
X89742857Y-110157142D01*
X89742857Y-110061904D01*
X89790476Y-109919047D01*
X90361904Y-109347619D01*
X89742857Y-109347619D01*
%TO.C,U8*%
X45793095Y-108252380D02*
X45793095Y-109061904D01*
X45840714Y-109157142D01*
X45888333Y-109204761D01*
X45983571Y-109252380D01*
X46174047Y-109252380D01*
X46269285Y-109204761D01*
X46316904Y-109157142D01*
X46364523Y-109061904D01*
X46364523Y-108252380D01*
X46983571Y-108680952D02*
X46888333Y-108633333D01*
X46840714Y-108585714D01*
X46793095Y-108490476D01*
X46793095Y-108442857D01*
X46840714Y-108347619D01*
X46888333Y-108300000D01*
X46983571Y-108252380D01*
X47174047Y-108252380D01*
X47269285Y-108300000D01*
X47316904Y-108347619D01*
X47364523Y-108442857D01*
X47364523Y-108490476D01*
X47316904Y-108585714D01*
X47269285Y-108633333D01*
X47174047Y-108680952D01*
X46983571Y-108680952D01*
X46888333Y-108728571D01*
X46840714Y-108776190D01*
X46793095Y-108871428D01*
X46793095Y-109061904D01*
X46840714Y-109157142D01*
X46888333Y-109204761D01*
X46983571Y-109252380D01*
X47174047Y-109252380D01*
X47269285Y-109204761D01*
X47316904Y-109157142D01*
X47364523Y-109061904D01*
X47364523Y-108871428D01*
X47316904Y-108776190D01*
X47269285Y-108728571D01*
X47174047Y-108680952D01*
%TO.C,J2*%
X67866666Y-27504761D02*
X68009523Y-27552380D01*
X68247619Y-27552380D01*
X68342857Y-27504761D01*
X68390476Y-27457142D01*
X68438095Y-27361904D01*
X68438095Y-27266666D01*
X68390476Y-27171428D01*
X68342857Y-27123809D01*
X68247619Y-27076190D01*
X68057142Y-27028571D01*
X67961904Y-26980952D01*
X67914285Y-26933333D01*
X67866666Y-26838095D01*
X67866666Y-26742857D01*
X67914285Y-26647619D01*
X67961904Y-26600000D01*
X68057142Y-26552380D01*
X68295238Y-26552380D01*
X68438095Y-26600000D01*
X69247619Y-27504761D02*
X69152380Y-27552380D01*
X68961904Y-27552380D01*
X68866666Y-27504761D01*
X68819047Y-27409523D01*
X68819047Y-27028571D01*
X68866666Y-26933333D01*
X68961904Y-26885714D01*
X69152380Y-26885714D01*
X69247619Y-26933333D01*
X69295238Y-27028571D01*
X69295238Y-27123809D01*
X68819047Y-27219047D01*
X69723809Y-26885714D02*
X69723809Y-27552380D01*
X69723809Y-26980952D02*
X69771428Y-26933333D01*
X69866666Y-26885714D01*
X70009523Y-26885714D01*
X70104761Y-26933333D01*
X70152380Y-27028571D01*
X70152380Y-27552380D01*
X70580952Y-27504761D02*
X70676190Y-27552380D01*
X70866666Y-27552380D01*
X70961904Y-27504761D01*
X71009523Y-27409523D01*
X71009523Y-27361904D01*
X70961904Y-27266666D01*
X70866666Y-27219047D01*
X70723809Y-27219047D01*
X70628571Y-27171428D01*
X70580952Y-27076190D01*
X70580952Y-27028571D01*
X70628571Y-26933333D01*
X70723809Y-26885714D01*
X70866666Y-26885714D01*
X70961904Y-26933333D01*
X71580952Y-27552380D02*
X71485714Y-27504761D01*
X71438095Y-27457142D01*
X71390476Y-27361904D01*
X71390476Y-27076190D01*
X71438095Y-26980952D01*
X71485714Y-26933333D01*
X71580952Y-26885714D01*
X71723809Y-26885714D01*
X71819047Y-26933333D01*
X71866666Y-26980952D01*
X71914285Y-27076190D01*
X71914285Y-27361904D01*
X71866666Y-27457142D01*
X71819047Y-27504761D01*
X71723809Y-27552380D01*
X71580952Y-27552380D01*
X72342857Y-27552380D02*
X72342857Y-26885714D01*
X72342857Y-27076190D02*
X72390476Y-26980952D01*
X72438095Y-26933333D01*
X72533333Y-26885714D01*
X72628571Y-26885714D01*
X73628571Y-26552380D02*
X74247619Y-26552380D01*
X73914285Y-26933333D01*
X74057142Y-26933333D01*
X74152380Y-26980952D01*
X74200000Y-27028571D01*
X74247619Y-27123809D01*
X74247619Y-27361904D01*
X74200000Y-27457142D01*
X74152380Y-27504761D01*
X74057142Y-27552380D01*
X73771428Y-27552380D01*
X73676190Y-27504761D01*
X73628571Y-27457142D01*
X76009523Y-27457142D02*
X75961904Y-27504761D01*
X75819047Y-27552380D01*
X75723809Y-27552380D01*
X75580952Y-27504761D01*
X75485714Y-27409523D01*
X75438095Y-27314285D01*
X75390476Y-27123809D01*
X75390476Y-26980952D01*
X75438095Y-26790476D01*
X75485714Y-26695238D01*
X75580952Y-26600000D01*
X75723809Y-26552380D01*
X75819047Y-26552380D01*
X75961904Y-26600000D01*
X76009523Y-26647619D01*
X77200000Y-27552380D02*
X77200000Y-26552380D01*
X77438095Y-26552380D01*
X77580952Y-26600000D01*
X77676190Y-26695238D01*
X77723809Y-26790476D01*
X77771428Y-26980952D01*
X77771428Y-27123809D01*
X77723809Y-27314285D01*
X77676190Y-27409523D01*
X77580952Y-27504761D01*
X77438095Y-27552380D01*
X77200000Y-27552380D01*
X79485714Y-26600000D02*
X79390476Y-26552380D01*
X79247619Y-26552380D01*
X79104761Y-26600000D01*
X79009523Y-26695238D01*
X78961904Y-26790476D01*
X78914285Y-26980952D01*
X78914285Y-27123809D01*
X78961904Y-27314285D01*
X79009523Y-27409523D01*
X79104761Y-27504761D01*
X79247619Y-27552380D01*
X79342857Y-27552380D01*
X79485714Y-27504761D01*
X79533333Y-27457142D01*
X79533333Y-27123809D01*
X79342857Y-27123809D01*
%TO.C,J4*%
X79345714Y-54304761D02*
X79488571Y-54352380D01*
X79726666Y-54352380D01*
X79821904Y-54304761D01*
X79869523Y-54257142D01*
X79917142Y-54161904D01*
X79917142Y-54066666D01*
X79869523Y-53971428D01*
X79821904Y-53923809D01*
X79726666Y-53876190D01*
X79536190Y-53828571D01*
X79440952Y-53780952D01*
X79393333Y-53733333D01*
X79345714Y-53638095D01*
X79345714Y-53542857D01*
X79393333Y-53447619D01*
X79440952Y-53400000D01*
X79536190Y-53352380D01*
X79774285Y-53352380D01*
X79917142Y-53400000D01*
X80726666Y-54304761D02*
X80631428Y-54352380D01*
X80440952Y-54352380D01*
X80345714Y-54304761D01*
X80298095Y-54209523D01*
X80298095Y-53828571D01*
X80345714Y-53733333D01*
X80440952Y-53685714D01*
X80631428Y-53685714D01*
X80726666Y-53733333D01*
X80774285Y-53828571D01*
X80774285Y-53923809D01*
X80298095Y-54019047D01*
X81202857Y-54352380D02*
X81202857Y-53685714D01*
X81202857Y-53876190D02*
X81250476Y-53780952D01*
X81298095Y-53733333D01*
X81393333Y-53685714D01*
X81488571Y-53685714D01*
X81726666Y-53685714D02*
X81964761Y-54352380D01*
X82202857Y-53685714D01*
X82726666Y-54352380D02*
X82631428Y-54304761D01*
X82583809Y-54257142D01*
X82536190Y-54161904D01*
X82536190Y-53876190D01*
X82583809Y-53780952D01*
X82631428Y-53733333D01*
X82726666Y-53685714D01*
X82869523Y-53685714D01*
X82964761Y-53733333D01*
X83012380Y-53780952D01*
X83060000Y-53876190D01*
X83060000Y-54161904D01*
X83012380Y-54257142D01*
X82964761Y-54304761D01*
X82869523Y-54352380D01*
X82726666Y-54352380D01*
X84250476Y-54352380D02*
X84250476Y-53352380D01*
X85964761Y-53352380D02*
X85488571Y-53352380D01*
X85440952Y-53828571D01*
X85488571Y-53780952D01*
X85583809Y-53733333D01*
X85821904Y-53733333D01*
X85917142Y-53780952D01*
X85964761Y-53828571D01*
X86012380Y-53923809D01*
X86012380Y-54161904D01*
X85964761Y-54257142D01*
X85917142Y-54304761D01*
X85821904Y-54352380D01*
X85583809Y-54352380D01*
X85488571Y-54304761D01*
X85440952Y-54257142D01*
X87726666Y-53400000D02*
X87631428Y-53352380D01*
X87488571Y-53352380D01*
X87345714Y-53400000D01*
X87250476Y-53495238D01*
X87202857Y-53590476D01*
X87155238Y-53780952D01*
X87155238Y-53923809D01*
X87202857Y-54114285D01*
X87250476Y-54209523D01*
X87345714Y-54304761D01*
X87488571Y-54352380D01*
X87583809Y-54352380D01*
X87726666Y-54304761D01*
X87774285Y-54257142D01*
X87774285Y-53923809D01*
X87583809Y-53923809D01*
D11*
%TO.C,J3*%
X48800000Y-56275000D02*
X48050000Y-56275000D01*
X48810000Y-59985000D02*
X48810000Y-54015000D01*
X42150000Y-53725000D02*
X40900000Y-53725000D01*
X48810000Y-54015000D02*
X41190000Y-54015000D01*
X41200000Y-54025000D02*
X41200000Y-54775000D01*
X41950000Y-56275000D02*
X41950000Y-59225000D01*
X41190000Y-54015000D02*
X41190000Y-59985000D01*
X48050000Y-56275000D02*
X48050000Y-59225000D01*
X41200000Y-56275000D02*
X41950000Y-56275000D01*
X45500000Y-54775000D02*
X45500000Y-54025000D01*
X44500000Y-54775000D02*
X45500000Y-54775000D01*
X41200000Y-54775000D02*
X43000000Y-54775000D01*
X43000000Y-54025000D02*
X41200000Y-54025000D01*
X43000000Y-54775000D02*
X43000000Y-54025000D01*
X44500000Y-54025000D02*
X44500000Y-54775000D01*
X40900000Y-53725000D02*
X40900000Y-54975000D01*
X47000000Y-54775000D02*
X48800000Y-54775000D01*
X48800000Y-54025000D02*
X47000000Y-54025000D01*
X48050000Y-59225000D02*
X45000000Y-59225000D01*
X45500000Y-54025000D02*
X44500000Y-54025000D01*
X48800000Y-54775000D02*
X48800000Y-54025000D01*
X41190000Y-59985000D02*
X48810000Y-59985000D01*
X47000000Y-54025000D02*
X47000000Y-54775000D01*
X41950000Y-59225000D02*
X45000000Y-59225000D01*
%TO.C,M1*%
X19000000Y-112900000D02*
X19000000Y-105700000D01*
X18100000Y-84300000D02*
X20000000Y-84300000D01*
X38800000Y-84300000D02*
X40700000Y-84300000D01*
X19000000Y-105700000D02*
X20000000Y-105700000D01*
X20000000Y-112900000D02*
X19000000Y-112900000D01*
X38800000Y-120500000D02*
X38800000Y-84300000D01*
X39800000Y-105700000D02*
X38800000Y-105700000D01*
X38800000Y-88700000D02*
X38300000Y-88700000D01*
X38800000Y-112900000D02*
X39800000Y-112900000D01*
X20000000Y-88700000D02*
X20500000Y-88700000D01*
X29400000Y-56300000D02*
X18100000Y-56300000D01*
X18100000Y-56300000D02*
X18100000Y-84300000D01*
X20000000Y-120500000D02*
X38800000Y-120500000D01*
X20000000Y-84300000D02*
X20000000Y-120500000D01*
X39800000Y-112900000D02*
X39800000Y-105700000D01*
X40700000Y-56300000D02*
X29400000Y-56300000D01*
X40700000Y-84300000D02*
X40700000Y-56300000D01*
%TO.C,U1*%
X30480000Y-13885000D02*
X48720000Y-13885000D01*
X30480000Y-20305000D02*
X30100000Y-20305000D01*
X48720000Y-13885000D02*
X48720000Y-20305000D01*
X30480000Y-13885000D02*
X30480000Y-20305000D01*
X30480000Y-39630000D02*
X31480000Y-39630000D01*
X30480000Y-38850000D02*
X30480000Y-39630000D01*
X48720000Y-39630000D02*
X47720000Y-39630000D01*
X48720000Y-38850000D02*
X48720000Y-39630000D01*
%TO.C,C2*%
X28390000Y-27859420D02*
X28390000Y-28140580D01*
X29410000Y-27859420D02*
X29410000Y-28140580D01*
%TO.C,C4*%
X89590580Y-55560000D02*
X89309420Y-55560000D01*
X89590580Y-54540000D02*
X89309420Y-54540000D01*
%TO.C,C6*%
X45359420Y-47990000D02*
X45640580Y-47990000D01*
X45359420Y-49010000D02*
X45640580Y-49010000D01*
%TO.C,U6*%
X75500000Y-49940000D02*
X76300000Y-49940000D01*
X75500000Y-49940000D02*
X74700000Y-49940000D01*
X75500000Y-53060000D02*
X74700000Y-53060000D01*
X75500000Y-53060000D02*
X77300000Y-53060000D01*
%TO.C,C11*%
X43640580Y-52510000D02*
X43359420Y-52510000D01*
X43640580Y-51490000D02*
X43359420Y-51490000D01*
%TO.C,C8*%
X37140580Y-41610000D02*
X36859420Y-41610000D01*
X37140580Y-40590000D02*
X36859420Y-40590000D01*
%TO.C,J1*%
X22200000Y-43900000D02*
X20300000Y-43900000D01*
X22200000Y-53300000D02*
X20300000Y-53300000D01*
X20300000Y-43900000D02*
X20300000Y-53300000D01*
X26100000Y-53300000D02*
X24100000Y-53300000D01*
X26100000Y-43900000D02*
X24100000Y-43900000D01*
%TO.C,C9*%
X89590580Y-53040000D02*
X89309420Y-53040000D01*
X89590580Y-54060000D02*
X89309420Y-54060000D01*
%TO.C,U5*%
X47100000Y-49940000D02*
X47900000Y-49940000D01*
X47100000Y-53060000D02*
X48900000Y-53060000D01*
X47100000Y-49940000D02*
X46300000Y-49940000D01*
X47100000Y-53060000D02*
X46300000Y-53060000D01*
%TO.C,R12*%
X60037258Y-107977500D02*
X59562742Y-107977500D01*
X60037258Y-109022500D02*
X59562742Y-109022500D01*
%TO.C,R4*%
X40337258Y-46122500D02*
X39862742Y-46122500D01*
X40337258Y-45077500D02*
X39862742Y-45077500D01*
%TO.C,U3*%
X97310000Y-48590000D02*
X97310000Y-49850000D01*
X91300000Y-48590000D02*
X97310000Y-48590000D01*
X97310000Y-55410000D02*
X97310000Y-54150000D01*
X93550000Y-55410000D02*
X97310000Y-55410000D01*
%TO.C,SW1*%
X23600000Y-29750000D02*
X26100000Y-29750000D01*
X22100000Y-31500000D02*
X22100000Y-33500000D01*
X26550000Y-30200000D02*
X26100000Y-29750000D01*
X27600000Y-31500000D02*
X27600000Y-33500000D01*
X23600000Y-35250000D02*
X26100000Y-35250000D01*
X26550000Y-34800000D02*
X26100000Y-35250000D01*
X23150000Y-30200000D02*
X23600000Y-29750000D01*
X23150000Y-34800000D02*
X23600000Y-35250000D01*
%TO.C,R6*%
X50722500Y-22962742D02*
X50722500Y-23437258D01*
X49677500Y-22962742D02*
X49677500Y-23437258D01*
%TO.C,R9*%
X62562742Y-106477500D02*
X63037258Y-106477500D01*
X62562742Y-107522500D02*
X63037258Y-107522500D01*
%TO.C,D1*%
X49250000Y-47650000D02*
X49250000Y-40350000D01*
X49250000Y-40350000D02*
X48100000Y-40350000D01*
X43750000Y-47650000D02*
X43750000Y-40350000D01*
%TO.C,R2*%
X26522500Y-41462742D02*
X26522500Y-41937258D01*
X25477500Y-41462742D02*
X25477500Y-41937258D01*
%TO.C,C3*%
X28390000Y-21859420D02*
X28390000Y-22140580D01*
X29410000Y-21859420D02*
X29410000Y-22140580D01*
%TO.C,J5*%
X78800000Y-54025000D02*
X77000000Y-54025000D01*
X78050000Y-59225000D02*
X75000000Y-59225000D01*
X71200000Y-54025000D02*
X71200000Y-54775000D01*
X77000000Y-54025000D02*
X77000000Y-54775000D01*
X77000000Y-54775000D02*
X78800000Y-54775000D01*
X71200000Y-56275000D02*
X71950000Y-56275000D01*
X70900000Y-53725000D02*
X70900000Y-54975000D01*
X78050000Y-56275000D02*
X78050000Y-59225000D01*
X78800000Y-56275000D02*
X78050000Y-56275000D01*
X74500000Y-54025000D02*
X74500000Y-54775000D01*
X72150000Y-53725000D02*
X70900000Y-53725000D01*
X71190000Y-59985000D02*
X78810000Y-59985000D01*
X78810000Y-59985000D02*
X78810000Y-54015000D01*
X78800000Y-54775000D02*
X78800000Y-54025000D01*
X71200000Y-54775000D02*
X73000000Y-54775000D01*
X75500000Y-54025000D02*
X74500000Y-54025000D01*
X73000000Y-54025000D02*
X71200000Y-54025000D01*
X71950000Y-56275000D02*
X71950000Y-59225000D01*
X75500000Y-54775000D02*
X75500000Y-54025000D01*
X73000000Y-54775000D02*
X73000000Y-54025000D01*
X78810000Y-54015000D02*
X71190000Y-54015000D01*
X71950000Y-59225000D02*
X75000000Y-59225000D01*
X71190000Y-54015000D02*
X71190000Y-59985000D01*
X74500000Y-54775000D02*
X75500000Y-54775000D01*
%TO.C,C10*%
X89590580Y-51060000D02*
X89309420Y-51060000D01*
X89590580Y-50040000D02*
X89309420Y-50040000D01*
%TO.C,Q2*%
X38740000Y-42900000D02*
X38740000Y-42250000D01*
X41860000Y-42900000D02*
X41860000Y-41225000D01*
X41860000Y-42900000D02*
X41860000Y-43550000D01*
X38740000Y-42900000D02*
X38740000Y-43550000D01*
%TO.C,R7*%
X43522500Y-42237258D02*
X43522500Y-41762742D01*
X42477500Y-42237258D02*
X42477500Y-41762742D01*
%TO.C,BT1*%
X49950000Y-105800000D02*
X49950000Y-27800000D01*
X70050000Y-27800000D02*
X70050000Y-105800000D01*
X70050000Y-105800000D02*
X49950000Y-105800000D01*
X49950000Y-27800000D02*
X70050000Y-27800000D01*
%TO.C,C14*%
X72040580Y-53010000D02*
X71759420Y-53010000D01*
X72040580Y-51990000D02*
X71759420Y-51990000D01*
%TO.C,Q1*%
X41860000Y-49800000D02*
X41860000Y-48125000D01*
X38740000Y-49800000D02*
X38740000Y-50450000D01*
X38740000Y-49800000D02*
X38740000Y-49150000D01*
X41860000Y-49800000D02*
X41860000Y-50450000D01*
%TO.C,C13*%
X43640580Y-51010000D02*
X43359420Y-51010000D01*
X43640580Y-49990000D02*
X43359420Y-49990000D01*
%TO.C,C12*%
X72040580Y-51510000D02*
X71759420Y-51510000D01*
X72040580Y-50490000D02*
X71759420Y-50490000D01*
%TO.C,C7*%
X29790000Y-46140580D02*
X29790000Y-45859420D01*
X30810000Y-46140580D02*
X30810000Y-45859420D01*
D10*
%TO.C,U4*%
X73642500Y-39247500D02*
X72372500Y-37977500D01*
X74912500Y-37977500D02*
X73642500Y-39247500D01*
X73642500Y-34167500D02*
X78722500Y-34167500D01*
X77452500Y-35437500D02*
X78722500Y-34167500D01*
X91422500Y-43057500D02*
X71102500Y-43057500D01*
X73642500Y-39247500D02*
X73642500Y-34167500D01*
X71102500Y-27817500D02*
X91422500Y-27817500D01*
X71102500Y-43057500D02*
X71102500Y-27817500D01*
X91422500Y-27817500D02*
X91422500Y-43057500D01*
X78722500Y-34167500D02*
X77452500Y-32897500D01*
D11*
%TO.C,R10*%
X60037258Y-107522500D02*
X59562742Y-107522500D01*
X60037258Y-106477500D02*
X59562742Y-106477500D01*
%TO.C,U2*%
X34800000Y-42240000D02*
X31350000Y-42240000D01*
X34800000Y-42240000D02*
X36750000Y-42240000D01*
X34800000Y-52360000D02*
X32850000Y-52360000D01*
X34800000Y-52360000D02*
X36750000Y-52360000D01*
%TO.C,M2*%
X81200000Y-84300000D02*
X81200000Y-120500000D01*
X101000000Y-105700000D02*
X100000000Y-105700000D01*
X81200000Y-88700000D02*
X81700000Y-88700000D01*
X79300000Y-84300000D02*
X81200000Y-84300000D01*
X79300000Y-56300000D02*
X79300000Y-84300000D01*
X80200000Y-105700000D02*
X81200000Y-105700000D01*
X80200000Y-112900000D02*
X80200000Y-105700000D01*
X100000000Y-84300000D02*
X101900000Y-84300000D01*
X101000000Y-112900000D02*
X101000000Y-105700000D01*
X81200000Y-112900000D02*
X80200000Y-112900000D01*
X100000000Y-112900000D02*
X101000000Y-112900000D01*
X101900000Y-56300000D02*
X90600000Y-56300000D01*
X100000000Y-88700000D02*
X99500000Y-88700000D01*
X90600000Y-56300000D02*
X79300000Y-56300000D01*
X81200000Y-120500000D02*
X100000000Y-120500000D01*
X101900000Y-84300000D02*
X101900000Y-56300000D01*
X100000000Y-120500000D02*
X100000000Y-84300000D01*
%TO.C,R3*%
X27337258Y-55222500D02*
X26862742Y-55222500D01*
X27337258Y-54177500D02*
X26862742Y-54177500D01*
%TO.C,R11*%
X62562742Y-107977500D02*
X63037258Y-107977500D01*
X62562742Y-109022500D02*
X63037258Y-109022500D01*
%TO.C,R8*%
X66122500Y-23962742D02*
X66122500Y-24437258D01*
X65077500Y-23962742D02*
X65077500Y-24437258D01*
%TO.C,R5*%
X40337258Y-46577500D02*
X39862742Y-46577500D01*
X40337258Y-47622500D02*
X39862742Y-47622500D01*
%TO.C,R1*%
X26877500Y-28237258D02*
X26877500Y-27762742D01*
X27922500Y-28237258D02*
X27922500Y-27762742D01*
%TO.C,J2*%
X67300000Y-21175000D02*
X69100000Y-21175000D01*
X79900000Y-20425000D02*
X78100000Y-20425000D01*
X79150000Y-25625000D02*
X73600000Y-25625000D01*
X67300000Y-22675000D02*
X68050000Y-22675000D01*
X67290000Y-26385000D02*
X79910000Y-26385000D01*
X76600000Y-20425000D02*
X70600000Y-20425000D01*
X79900000Y-21175000D02*
X79900000Y-20425000D01*
X68050000Y-25625000D02*
X73600000Y-25625000D01*
X68050000Y-22675000D02*
X68050000Y-25625000D01*
X67300000Y-20425000D02*
X67300000Y-21175000D01*
X69100000Y-20425000D02*
X67300000Y-20425000D01*
X67290000Y-20415000D02*
X67290000Y-26385000D01*
X70600000Y-20425000D02*
X70600000Y-21175000D01*
X70600000Y-21175000D02*
X76600000Y-21175000D01*
X79150000Y-22675000D02*
X79150000Y-25625000D01*
X67000000Y-20125000D02*
X67000000Y-21375000D01*
X79900000Y-22675000D02*
X79150000Y-22675000D01*
X69100000Y-21175000D02*
X69100000Y-20425000D01*
X79910000Y-26385000D02*
X79910000Y-20415000D01*
X79910000Y-20415000D02*
X67290000Y-20415000D01*
X68250000Y-20125000D02*
X67000000Y-20125000D01*
X78100000Y-21175000D02*
X79900000Y-21175000D01*
X78100000Y-20425000D02*
X78100000Y-21175000D01*
X76600000Y-21175000D02*
X76600000Y-20425000D01*
%TO.C,J4*%
X82330000Y-50270000D02*
X87470000Y-50270000D01*
X87470000Y-52930000D02*
X87470000Y-50270000D01*
X79730000Y-52930000D02*
X79730000Y-51600000D01*
X82330000Y-52930000D02*
X82330000Y-50270000D01*
X82330000Y-52930000D02*
X87470000Y-52930000D01*
X81060000Y-52930000D02*
X79730000Y-52930000D01*
%TO.C,C5*%
X89590580Y-52560000D02*
X89309420Y-52560000D01*
X89590580Y-51540000D02*
X89309420Y-51540000D01*
%TO.C,C1*%
X28390000Y-24859420D02*
X28390000Y-25140580D01*
X29410000Y-24859420D02*
X29410000Y-25140580D01*
%TD*%
%LPC*%
D12*
%TO.C,J6*%
X56300000Y-38300000D03*
D13*
X56300000Y-35760000D03*
X56300000Y-33220000D03*
X56300000Y-30680000D03*
%TD*%
D14*
%TO.C,U9*%
X66262500Y-28597500D03*
X66262500Y-31137500D03*
X66262500Y-33677500D03*
X66262500Y-36217500D03*
X66262500Y-38757500D03*
X66262500Y-41297500D03*
X66262500Y-43837500D03*
X66262500Y-46377500D03*
%TD*%
D15*
%TO.C,H6*%
X96000000Y-116000000D03*
%TD*%
%TO.C,H7*%
X24000000Y-116000000D03*
%TD*%
D16*
%TO.C,J3*%
X43750000Y-56475000D03*
D17*
X46250000Y-56475000D03*
%TD*%
D18*
%TO.C,U1*%
X31100000Y-21495000D03*
X31100000Y-22765000D03*
X31100000Y-24035000D03*
X31100000Y-25305000D03*
X31100000Y-26575000D03*
X31100000Y-27845000D03*
X31100000Y-29115000D03*
X31100000Y-30385000D03*
X31100000Y-31655000D03*
X31100000Y-32925000D03*
X31100000Y-34195000D03*
X31100000Y-35465000D03*
X31100000Y-36735000D03*
X31100000Y-38005000D03*
D19*
X33885000Y-39005000D03*
X35155000Y-39005000D03*
X36425000Y-39005000D03*
X37695000Y-39005000D03*
X38965000Y-39005000D03*
X40235000Y-39005000D03*
X41505000Y-39005000D03*
X42775000Y-39005000D03*
X44045000Y-39005000D03*
X45315000Y-39005000D03*
D18*
X48100000Y-38005000D03*
X48100000Y-36735000D03*
X48100000Y-35465000D03*
X48100000Y-34195000D03*
X48100000Y-32925000D03*
X48100000Y-31655000D03*
X48100000Y-30385000D03*
X48100000Y-29115000D03*
X48100000Y-27845000D03*
X48100000Y-26575000D03*
X48100000Y-25305000D03*
X48100000Y-24035000D03*
X48100000Y-22765000D03*
X48100000Y-21495000D03*
D20*
X38600000Y-28995000D03*
%TD*%
D21*
%TO.C,C2*%
X28900000Y-27225000D03*
X28900000Y-28775000D03*
%TD*%
D22*
%TO.C,C4*%
X90225000Y-55050000D03*
X88675000Y-55050000D03*
%TD*%
D23*
%TO.C,C6*%
X44725000Y-48500000D03*
X46275000Y-48500000D03*
%TD*%
D15*
%TO.C,H2*%
X44000000Y-98500000D03*
%TD*%
D24*
%TO.C,U6*%
X76637500Y-52450000D03*
X76637500Y-51500000D03*
X76637500Y-50550000D03*
X74362500Y-50550000D03*
X74362500Y-51500000D03*
X74362500Y-52450000D03*
%TD*%
D22*
%TO.C,C11*%
X44275000Y-52000000D03*
X42725000Y-52000000D03*
%TD*%
%TO.C,C8*%
X37775000Y-41100000D03*
X36225000Y-41100000D03*
%TD*%
D25*
%TO.C,J1*%
X26800000Y-51490000D03*
X26800000Y-45710000D03*
D26*
X28245000Y-45350000D03*
X28245000Y-46150000D03*
D27*
X28245000Y-47350000D03*
X28245000Y-48350000D03*
X28245000Y-48850000D03*
X28245000Y-49850000D03*
D26*
X28245000Y-51050000D03*
X28245000Y-51850000D03*
X28245000Y-51850000D03*
X28245000Y-51050000D03*
D27*
X28245000Y-50350000D03*
X28245000Y-49350000D03*
X28245000Y-47850000D03*
X28245000Y-46850000D03*
D26*
X28245000Y-46150000D03*
X28245000Y-45350000D03*
D28*
X23150000Y-52920000D03*
X23150000Y-44280000D03*
D29*
X27330000Y-44280000D03*
X27330000Y-52920000D03*
%TD*%
D22*
%TO.C,C9*%
X90225000Y-53550000D03*
X88675000Y-53550000D03*
%TD*%
D24*
%TO.C,U5*%
X48237500Y-52450000D03*
X48237500Y-51500000D03*
X48237500Y-50550000D03*
X45962500Y-50550000D03*
X45962500Y-51500000D03*
X45962500Y-52450000D03*
%TD*%
D30*
%TO.C,R12*%
X60625000Y-108500000D03*
X58975000Y-108500000D03*
%TD*%
%TO.C,R4*%
X40925000Y-45600000D03*
X39275000Y-45600000D03*
%TD*%
D31*
%TO.C,U3*%
X92250000Y-49700000D03*
D32*
X98550000Y-52000000D03*
D31*
X92250000Y-52000000D03*
X92250000Y-54300000D03*
%TD*%
D33*
%TO.C,SW1*%
X28000000Y-30600000D03*
X21700000Y-30600000D03*
X21700000Y-34400000D03*
X28000000Y-34400000D03*
%TD*%
D34*
%TO.C,R6*%
X50200000Y-22375000D03*
X50200000Y-24025000D03*
%TD*%
D35*
%TO.C,R9*%
X61975000Y-107000000D03*
X63625000Y-107000000D03*
%TD*%
D36*
%TO.C,D1*%
X44900000Y-46450000D03*
X48100000Y-46450000D03*
X48100000Y-41550000D03*
X44900000Y-41550000D03*
%TD*%
D34*
%TO.C,R2*%
X26000000Y-40875000D03*
X26000000Y-42525000D03*
%TD*%
D21*
%TO.C,C3*%
X28900000Y-21225000D03*
X28900000Y-22775000D03*
%TD*%
D15*
%TO.C,H4*%
X76000000Y-66500000D03*
%TD*%
D16*
%TO.C,J5*%
X73750000Y-56475000D03*
D17*
X76250000Y-56475000D03*
%TD*%
D22*
%TO.C,C10*%
X90225000Y-50550000D03*
X88675000Y-50550000D03*
%TD*%
D37*
%TO.C,Q2*%
X41250000Y-41962500D03*
X39350000Y-41962500D03*
X40300000Y-43837500D03*
%TD*%
D15*
%TO.C,H3*%
X76000000Y-98500000D03*
%TD*%
D38*
%TO.C,R7*%
X43000000Y-42825000D03*
X43000000Y-41175000D03*
%TD*%
D15*
%TO.C,BT1*%
X60000000Y-95055000D03*
X60000000Y-39445000D03*
D39*
X60000000Y-30800000D03*
D40*
X60000000Y-102800000D03*
%TD*%
D22*
%TO.C,C14*%
X72675000Y-52500000D03*
X71125000Y-52500000D03*
%TD*%
D37*
%TO.C,Q1*%
X41250000Y-48862500D03*
X39350000Y-48862500D03*
X40300000Y-50737500D03*
%TD*%
D22*
%TO.C,C13*%
X44275000Y-50500000D03*
X42725000Y-50500000D03*
%TD*%
%TO.C,C12*%
X72675000Y-51000000D03*
X71125000Y-51000000D03*
%TD*%
D41*
%TO.C,C7*%
X30300000Y-46775000D03*
X30300000Y-45225000D03*
%TD*%
D15*
%TO.C,H5*%
X96000000Y-24000000D03*
%TD*%
%TO.C,H9*%
X60000000Y-24000000D03*
%TD*%
%TO.C,H8*%
X24000000Y-24000000D03*
%TD*%
D42*
%TO.C,U4*%
X72372500Y-29087500D03*
X74912500Y-29087500D03*
X77452500Y-29087500D03*
X79992500Y-29087500D03*
X82532500Y-29087500D03*
X85072500Y-29087500D03*
X87612500Y-29087500D03*
X90152500Y-29087500D03*
%TD*%
D30*
%TO.C,R10*%
X60625000Y-107000000D03*
X58975000Y-107000000D03*
%TD*%
D43*
%TO.C,U2*%
X32325000Y-42855000D03*
X32325000Y-44125000D03*
X32325000Y-45395000D03*
X32325000Y-46665000D03*
X32325000Y-47935000D03*
X32325000Y-49205000D03*
X32325000Y-50475000D03*
X32325000Y-51745000D03*
X37275000Y-51745000D03*
X37275000Y-50475000D03*
X37275000Y-49205000D03*
X37275000Y-47935000D03*
X37275000Y-46665000D03*
X37275000Y-45395000D03*
X37275000Y-44125000D03*
X37275000Y-42855000D03*
%TD*%
D30*
%TO.C,R3*%
X27925000Y-54700000D03*
X26275000Y-54700000D03*
%TD*%
D35*
%TO.C,R11*%
X61975000Y-108500000D03*
X63625000Y-108500000D03*
%TD*%
D34*
%TO.C,R8*%
X65600000Y-23375000D03*
X65600000Y-25025000D03*
%TD*%
D30*
%TO.C,R5*%
X40925000Y-47100000D03*
X39275000Y-47100000D03*
%TD*%
D38*
%TO.C,R1*%
X27400000Y-28825000D03*
X27400000Y-27175000D03*
%TD*%
D44*
%TO.C,J2*%
X69850000Y-22875000D03*
D45*
X72350000Y-22875000D03*
X74850000Y-22875000D03*
X77350000Y-22875000D03*
%TD*%
D12*
%TO.C,J4*%
X81060000Y-51600000D03*
D13*
X83600000Y-51600000D03*
X86140000Y-51600000D03*
%TD*%
D22*
%TO.C,C5*%
X90225000Y-52050000D03*
X88675000Y-52050000D03*
%TD*%
D21*
%TO.C,C1*%
X28900000Y-24225000D03*
X28900000Y-25775000D03*
%TD*%
D15*
%TO.C,H1*%
X44000000Y-66500000D03*
%TD*%
M02*
