M48
; DRILL file {KiCad (6.0.7)} date Sat Sep 24 23:46:27 2022
; FORMAT={-:-/ absolute / inch / decimal}
; #@! TF.CreationDate,2022-09-24T23:46:27+02:00
; #@! TF.GenerationSoftware,Kicad,Pcbnew,(6.0.7)
; #@! TF.FileFunction,Plated,1,2,PTH
FMAT,2
INCH
; #@! TA.AperFunction,Plated,PTH,ViaDrill
T1C0.0157
; #@! TA.AperFunction,Plated,PTH,ComponentDrill
T2C0.0236
; #@! TA.AperFunction,Plated,PTH,ComponentDrill
T3C0.0300
; #@! TA.AperFunction,Plated,PTH,ComponentDrill
T4C0.0374
; #@! TA.AperFunction,Plated,PTH,ComponentDrill
T5C0.0394
; #@! TA.AperFunction,Plated,PTH,ComponentDrill
T6C0.0787
%
G90
G05
T1
X0.8543Y-1.6142
X0.8583Y-1.4173
X1.1102Y-1.2047
X1.1181Y-1.0433
X1.1642Y-1.8898
X1.1642Y-1.9567
X1.2087Y-1.6929
X1.3031Y-1.5354
X1.3228Y-1.7441
X1.3228Y-1.7874
X1.3346Y-0.9488
X1.3346Y-1.6024
X1.3898Y-1.0551
X1.3898Y-1.2323
X1.4331Y-1.0197
X1.4331Y-1.2717
X1.5236Y-4.1614
X1.5866Y-1.6811
X1.6063Y-1.0197
X1.6063Y-1.2717
X1.6457Y-1.0551
X1.6457Y-1.2323
X1.6496Y-2.0472
X1.6811Y-1.9567
X1.6961Y-1.7354
X1.7835Y-0.9488
X1.7835Y-1.4449
X1.8504Y-1.9094
X1.9213Y-0.9961
X1.9213Y-1.0463
X1.9409Y-2.0276
X1.9764Y-0.8809
X2.2087Y-4.2126
X2.5315Y-4.2126
X2.5386Y-4.2733
X2.7756Y-2.0079
X2.7756Y-2.0669
X2.9803Y-2.0276
X3.0551Y-2.0276
X3.4567Y-2.1693
X3.4606Y-1.9921
X3.4606Y-2.0512
X3.4606Y-2.1102
X3.7087Y-1.9291
X3.7087Y-2.0472
X3.7087Y-2.1654
X3.7598Y-1.9291
X3.7598Y-2.0472
X3.7598Y-2.1654
X3.8189Y-1.9291
X3.8189Y-2.0472
X3.8189Y-2.1654
T3
X2.6088Y-1.1259
X2.6088Y-1.2259
X2.6088Y-1.3259
X2.6088Y-1.4259
X2.6088Y-1.5259
X2.6088Y-1.6259
X2.6088Y-1.7259
X2.6088Y-1.8259
X2.8493Y-1.1452
X2.9493Y-1.1452
X3.0493Y-1.1452
X3.1493Y-1.1452
X3.2493Y-1.1452
X3.3493Y-1.1452
X3.4493Y-1.1452
X3.5493Y-1.1452
T4
X2.75Y-0.9006
X2.8484Y-0.9006
X2.9469Y-0.9006
X3.0453Y-0.9006
T5
X1.7224Y-2.2234
X1.8209Y-2.2234
X2.2165Y-1.2079
X2.2165Y-1.3079
X2.2165Y-1.4079
X2.2165Y-1.5079
X2.9035Y-2.2234
X3.002Y-2.2234
X3.1913Y-2.0315
X3.2913Y-2.0315
X3.3913Y-2.0315
T6
X2.3622Y-1.2126
X2.3622Y-4.0472
T2
G00X0.9232Y-1.7433
M15
G01X0.8996Y-1.7433
M16
G05
G00X0.9232Y-2.0835
M15
G01X0.8996Y-2.0835
M16
G05
G00X1.0976Y-1.7433
M15
G01X1.0543Y-1.7433
M16
G05
G00X1.0976Y-2.0835
M15
G01X1.0543Y-2.0835
M16
G05
T0
M30
